<svg xmlns="http://www.w3.org/2000/svg" version="1.2"
    width="24px" height="24px" viewBox="0 0 24 24">
  <style>
    rect.c2 {  fill: #0000ffff }  /*  27 pixel(s) */
    rect.c5 {  fill: #ffff0bff }  /*  18 pixel(s) */
    rect.c6 {  fill: #6c0002ff }  /*  17 pixel(s) */
    rect.c7 {  fill: #000000ff }  /*  40 pixel(s) */
    rect.c8 {  fill: #ae8b61ff }  /*  96 pixel(s) */
    rect.c10 {  fill: #ffffffff }  /*   2 pixel(s) */
    rect.c1 {  fill: #fa0007ff }  /*  26 pixel(s) */
    rect.c3 {  fill: #107101ff }  /*  18 pixel(s) */
    rect.c4 {  fill: #fc6a08ff }  /*  14 pixel(s) */
    rect.c9 {  fill: #86581eff }  /*   4 pixel(s) */
    rect.px {  shape-rendering: crispEdges  }
  </style>
  <rect class="px c1" x="5" y="2" width="1" height="1"/>
  <rect class="px c1" x="6" y="2" width="1" height="1"/>
  <rect class="px c1" x="7" y="2" width="1" height="1"/>
  <rect class="px c2" x="16" y="2" width="1" height="1"/>
  <rect class="px c2" x="17" y="2" width="1" height="1"/>
  <rect class="px c2" x="18" y="2" width="1" height="1"/>
  <rect class="px c1" x="4" y="3" width="1" height="1"/>
  <rect class="px c1" x="5" y="3" width="1" height="1"/>
  <rect class="px c1" x="6" y="3" width="1" height="1"/>
  <rect class="px c1" x="7" y="3" width="1" height="1"/>
  <rect class="px c1" x="8" y="3" width="1" height="1"/>
  <rect class="px c1" x="9" y="3" width="1" height="1"/>
  <rect class="px c2" x="14" y="3" width="1" height="1"/>
  <rect class="px c2" x="15" y="3" width="1" height="1"/>
  <rect class="px c2" x="16" y="3" width="1" height="1"/>
  <rect class="px c2" x="17" y="3" width="1" height="1"/>
  <rect class="px c2" x="18" y="3" width="1" height="1"/>
  <rect class="px c2" x="19" y="3" width="1" height="1"/>
  <rect class="px c1" x="3" y="4" width="1" height="1"/>
  <rect class="px c1" x="4" y="4" width="1" height="1"/>
  <rect class="px c1" x="5" y="4" width="1" height="1"/>
  <rect class="px c1" x="6" y="4" width="1" height="1"/>
  <rect class="px c1" x="7" y="4" width="1" height="1"/>
  <rect class="px c1" x="8" y="4" width="1" height="1"/>
  <rect class="px c1" x="9" y="4" width="1" height="1"/>
  <rect class="px c1" x="10" y="4" width="1" height="1"/>
  <rect class="px c1" x="11" y="4" width="1" height="1"/>
  <rect class="px c2" x="12" y="4" width="1" height="1"/>
  <rect class="px c2" x="13" y="4" width="1" height="1"/>
  <rect class="px c2" x="14" y="4" width="1" height="1"/>
  <rect class="px c2" x="15" y="4" width="1" height="1"/>
  <rect class="px c2" x="16" y="4" width="1" height="1"/>
  <rect class="px c2" x="17" y="4" width="1" height="1"/>
  <rect class="px c2" x="18" y="4" width="1" height="1"/>
  <rect class="px c2" x="19" y="4" width="1" height="1"/>
  <rect class="px c2" x="20" y="4" width="1" height="1"/>
  <rect class="px c1" x="3" y="5" width="1" height="1"/>
  <rect class="px c1" x="4" y="5" width="1" height="1"/>
  <rect class="px c1" x="6" y="5" width="1" height="1"/>
  <rect class="px c1" x="7" y="5" width="1" height="1"/>
  <rect class="px c3" x="8" y="5" width="1" height="1"/>
  <rect class="px c3" x="9" y="5" width="1" height="1"/>
  <rect class="px c3" x="10" y="5" width="1" height="1"/>
  <rect class="px c3" x="11" y="5" width="1" height="1"/>
  <rect class="px c4" x="12" y="5" width="1" height="1"/>
  <rect class="px c4" x="13" y="5" width="1" height="1"/>
  <rect class="px c4" x="14" y="5" width="1" height="1"/>
  <rect class="px c2" x="15" y="5" width="1" height="1"/>
  <rect class="px c2" x="16" y="5" width="1" height="1"/>
  <rect class="px c2" x="17" y="5" width="1" height="1"/>
  <rect class="px c2" x="19" y="5" width="1" height="1"/>
  <rect class="px c2" x="20" y="5" width="1" height="1"/>
  <rect class="px c1" x="3" y="6" width="1" height="1"/>
  <rect class="px c1" x="4" y="6" width="1" height="1"/>
  <rect class="px c1" x="6" y="6" width="1" height="1"/>
  <rect class="px c3" x="7" y="6" width="1" height="1"/>
  <rect class="px c3" x="8" y="6" width="1" height="1"/>
  <rect class="px c3" x="9" y="6" width="1" height="1"/>
  <rect class="px c3" x="10" y="6" width="1" height="1"/>
  <rect class="px c3" x="11" y="6" width="1" height="1"/>
  <rect class="px c4" x="12" y="6" width="1" height="1"/>
  <rect class="px c4" x="13" y="6" width="1" height="1"/>
  <rect class="px c4" x="14" y="6" width="1" height="1"/>
  <rect class="px c4" x="15" y="6" width="1" height="1"/>
  <rect class="px c2" x="16" y="6" width="1" height="1"/>
  <rect class="px c2" x="19" y="6" width="1" height="1"/>
  <rect class="px c2" x="20" y="6" width="1" height="1"/>
  <rect class="px c1" x="3" y="7" width="1" height="1"/>
  <rect class="px c3" x="6" y="7" width="1" height="1"/>
  <rect class="px c3" x="7" y="7" width="1" height="1"/>
  <rect class="px c3" x="8" y="7" width="1" height="1"/>
  <rect class="px c3" x="9" y="7" width="1" height="1"/>
  <rect class="px c3" x="10" y="7" width="1" height="1"/>
  <rect class="px c3" x="11" y="7" width="1" height="1"/>
  <rect class="px c4" x="12" y="7" width="1" height="1"/>
  <rect class="px c4" x="13" y="7" width="1" height="1"/>
  <rect class="px c4" x="14" y="7" width="1" height="1"/>
  <rect class="px c4" x="15" y="7" width="1" height="1"/>
  <rect class="px c4" x="16" y="7" width="1" height="1"/>
  <rect class="px c2" x="20" y="7" width="1" height="1"/>
  <rect class="px c5" x="2" y="8" width="1" height="1"/>
  <rect class="px c5" x="3" y="8" width="1" height="1"/>
  <rect class="px c5" x="4" y="8" width="1" height="1"/>
  <rect class="px c3" x="6" y="8" width="1" height="1"/>
  <rect class="px c6" x="7" y="8" width="1" height="1"/>
  <rect class="px c6" x="8" y="8" width="1" height="1"/>
  <rect class="px c3" x="9" y="8" width="1" height="1"/>
  <rect class="px c3" x="10" y="8" width="1" height="1"/>
  <rect class="px c6" x="11" y="8" width="1" height="1"/>
  <rect class="px c6" x="12" y="8" width="1" height="1"/>
  <rect class="px c4" x="13" y="8" width="1" height="1"/>
  <rect class="px c4" x="14" y="8" width="1" height="1"/>
  <rect class="px c6" x="15" y="8" width="1" height="1"/>
  <rect class="px c6" x="16" y="8" width="1" height="1"/>
  <rect class="px c5" x="19" y="8" width="1" height="1"/>
  <rect class="px c5" x="20" y="8" width="1" height="1"/>
  <rect class="px c5" x="21" y="8" width="1" height="1"/>
  <rect class="px c5" x="2" y="9" width="1" height="1"/>
  <rect class="px c5" x="3" y="9" width="1" height="1"/>
  <rect class="px c5" x="4" y="9" width="1" height="1"/>
  <rect class="px c6" x="6" y="9" width="1" height="1"/>
  <rect class="px c6" x="7" y="9" width="1" height="1"/>
  <rect class="px c6" x="8" y="9" width="1" height="1"/>
  <rect class="px c6" x="9" y="9" width="1" height="1"/>
  <rect class="px c6" x="10" y="9" width="1" height="1"/>
  <rect class="px c6" x="11" y="9" width="1" height="1"/>
  <rect class="px c6" x="12" y="9" width="1" height="1"/>
  <rect class="px c6" x="13" y="9" width="1" height="1"/>
  <rect class="px c6" x="14" y="9" width="1" height="1"/>
  <rect class="px c6" x="15" y="9" width="1" height="1"/>
  <rect class="px c6" x="16" y="9" width="1" height="1"/>
  <rect class="px c5" x="19" y="9" width="1" height="1"/>
  <rect class="px c5" x="20" y="9" width="1" height="1"/>
  <rect class="px c5" x="21" y="9" width="1" height="1"/>
  <rect class="px c5" x="2" y="10" width="1" height="1"/>
  <rect class="px c5" x="3" y="10" width="1" height="1"/>
  <rect class="px c5" x="4" y="10" width="1" height="1"/>
  <rect class="px c7" x="6" y="10" width="1" height="1"/>
  <rect class="px c8" x="7" y="10" width="1" height="1"/>
  <rect class="px c8" x="8" y="10" width="1" height="1"/>
  <rect class="px c8" x="9" y="10" width="1" height="1"/>
  <rect class="px c8" x="10" y="10" width="1" height="1"/>
  <rect class="px c8" x="11" y="10" width="1" height="1"/>
  <rect class="px c8" x="12" y="10" width="1" height="1"/>
  <rect class="px c8" x="13" y="10" width="1" height="1"/>
  <rect class="px c8" x="14" y="10" width="1" height="1"/>
  <rect class="px c8" x="15" y="10" width="1" height="1"/>
  <rect class="px c7" x="16" y="10" width="1" height="1"/>
  <rect class="px c5" x="19" y="10" width="1" height="1"/>
  <rect class="px c5" x="20" y="10" width="1" height="1"/>
  <rect class="px c5" x="21" y="10" width="1" height="1"/>
  <rect class="px c7" x="6" y="11" width="1" height="1"/>
  <rect class="px c8" x="7" y="11" width="1" height="1"/>
  <rect class="px c8" x="8" y="11" width="1" height="1"/>
  <rect class="px c9" x="9" y="11" width="1" height="1"/>
  <rect class="px c9" x="10" y="11" width="1" height="1"/>
  <rect class="px c8" x="11" y="11" width="1" height="1"/>
  <rect class="px c8" x="12" y="11" width="1" height="1"/>
  <rect class="px c8" x="13" y="11" width="1" height="1"/>
  <rect class="px c9" x="14" y="11" width="1" height="1"/>
  <rect class="px c9" x="15" y="11" width="1" height="1"/>
  <rect class="px c7" x="16" y="11" width="1" height="1"/>
  <rect class="px c7" x="5" y="12" width="1" height="1"/>
  <rect class="px c8" x="6" y="12" width="1" height="1"/>
  <rect class="px c8" x="7" y="12" width="1" height="1"/>
  <rect class="px c8" x="8" y="12" width="1" height="1"/>
  <rect class="px c7" x="9" y="12" width="1" height="1"/>
  <rect class="px c10" x="10" y="12" width="1" height="1"/>
  <rect class="px c8" x="11" y="12" width="1" height="1"/>
  <rect class="px c8" x="12" y="12" width="1" height="1"/>
  <rect class="px c8" x="13" y="12" width="1" height="1"/>
  <rect class="px c7" x="14" y="12" width="1" height="1"/>
  <rect class="px c10" x="15" y="12" width="1" height="1"/>
  <rect class="px c7" x="16" y="12" width="1" height="1"/>
  <rect class="px c7" x="5" y="13" width="1" height="1"/>
  <rect class="px c8" x="6" y="13" width="1" height="1"/>
  <rect class="px c8" x="7" y="13" width="1" height="1"/>
  <rect class="px c8" x="8" y="13" width="1" height="1"/>
  <rect class="px c8" x="9" y="13" width="1" height="1"/>
  <rect class="px c8" x="10" y="13" width="1" height="1"/>
  <rect class="px c8" x="11" y="13" width="1" height="1"/>
  <rect class="px c8" x="12" y="13" width="1" height="1"/>
  <rect class="px c8" x="13" y="13" width="1" height="1"/>
  <rect class="px c8" x="14" y="13" width="1" height="1"/>
  <rect class="px c8" x="15" y="13" width="1" height="1"/>
  <rect class="px c7" x="16" y="13" width="1" height="1"/>
  <rect class="px c7" x="5" y="14" width="1" height="1"/>
  <rect class="px c7" x="6" y="14" width="1" height="1"/>
  <rect class="px c8" x="7" y="14" width="1" height="1"/>
  <rect class="px c8" x="8" y="14" width="1" height="1"/>
  <rect class="px c8" x="9" y="14" width="1" height="1"/>
  <rect class="px c8" x="10" y="14" width="1" height="1"/>
  <rect class="px c8" x="11" y="14" width="1" height="1"/>
  <rect class="px c8" x="12" y="14" width="1" height="1"/>
  <rect class="px c8" x="13" y="14" width="1" height="1"/>
  <rect class="px c8" x="14" y="14" width="1" height="1"/>
  <rect class="px c8" x="15" y="14" width="1" height="1"/>
  <rect class="px c7" x="16" y="14" width="1" height="1"/>
  <rect class="px c7" x="6" y="15" width="1" height="1"/>
  <rect class="px c8" x="7" y="15" width="1" height="1"/>
  <rect class="px c8" x="8" y="15" width="1" height="1"/>
  <rect class="px c8" x="9" y="15" width="1" height="1"/>
  <rect class="px c8" x="10" y="15" width="1" height="1"/>
  <rect class="px c8" x="11" y="15" width="1" height="1"/>
  <rect class="px c7" x="12" y="15" width="1" height="1"/>
  <rect class="px c7" x="13" y="15" width="1" height="1"/>
  <rect class="px c8" x="14" y="15" width="1" height="1"/>
  <rect class="px c8" x="15" y="15" width="1" height="1"/>
  <rect class="px c7" x="16" y="15" width="1" height="1"/>
  <rect class="px c7" x="6" y="16" width="1" height="1"/>
  <rect class="px c8" x="7" y="16" width="1" height="1"/>
  <rect class="px c8" x="8" y="16" width="1" height="1"/>
  <rect class="px c8" x="9" y="16" width="1" height="1"/>
  <rect class="px c8" x="10" y="16" width="1" height="1"/>
  <rect class="px c8" x="11" y="16" width="1" height="1"/>
  <rect class="px c8" x="12" y="16" width="1" height="1"/>
  <rect class="px c8" x="13" y="16" width="1" height="1"/>
  <rect class="px c8" x="14" y="16" width="1" height="1"/>
  <rect class="px c8" x="15" y="16" width="1" height="1"/>
  <rect class="px c7" x="16" y="16" width="1" height="1"/>
  <rect class="px c7" x="6" y="17" width="1" height="1"/>
  <rect class="px c8" x="7" y="17" width="1" height="1"/>
  <rect class="px c8" x="8" y="17" width="1" height="1"/>
  <rect class="px c8" x="9" y="17" width="1" height="1"/>
  <rect class="px c8" x="10" y="17" width="1" height="1"/>
  <rect class="px c8" x="11" y="17" width="1" height="1"/>
  <rect class="px c8" x="12" y="17" width="1" height="1"/>
  <rect class="px c8" x="13" y="17" width="1" height="1"/>
  <rect class="px c8" x="14" y="17" width="1" height="1"/>
  <rect class="px c8" x="15" y="17" width="1" height="1"/>
  <rect class="px c7" x="16" y="17" width="1" height="1"/>
  <rect class="px c7" x="6" y="18" width="1" height="1"/>
  <rect class="px c8" x="7" y="18" width="1" height="1"/>
  <rect class="px c8" x="8" y="18" width="1" height="1"/>
  <rect class="px c8" x="9" y="18" width="1" height="1"/>
  <rect class="px c8" x="10" y="18" width="1" height="1"/>
  <rect class="px c7" x="11" y="18" width="1" height="1"/>
  <rect class="px c7" x="12" y="18" width="1" height="1"/>
  <rect class="px c7" x="13" y="18" width="1" height="1"/>
  <rect class="px c8" x="14" y="18" width="1" height="1"/>
  <rect class="px c8" x="15" y="18" width="1" height="1"/>
  <rect class="px c7" x="16" y="18" width="1" height="1"/>
  <rect class="px c7" x="6" y="19" width="1" height="1"/>
  <rect class="px c8" x="7" y="19" width="1" height="1"/>
  <rect class="px c8" x="8" y="19" width="1" height="1"/>
  <rect class="px c8" x="9" y="19" width="1" height="1"/>
  <rect class="px c8" x="10" y="19" width="1" height="1"/>
  <rect class="px c8" x="11" y="19" width="1" height="1"/>
  <rect class="px c8" x="12" y="19" width="1" height="1"/>
  <rect class="px c8" x="13" y="19" width="1" height="1"/>
  <rect class="px c8" x="14" y="19" width="1" height="1"/>
  <rect class="px c8" x="15" y="19" width="1" height="1"/>
  <rect class="px c7" x="16" y="19" width="1" height="1"/>
  <rect class="px c7" x="6" y="20" width="1" height="1"/>
  <rect class="px c8" x="7" y="20" width="1" height="1"/>
  <rect class="px c8" x="8" y="20" width="1" height="1"/>
  <rect class="px c8" x="9" y="20" width="1" height="1"/>
  <rect class="px c8" x="10" y="20" width="1" height="1"/>
  <rect class="px c8" x="11" y="20" width="1" height="1"/>
  <rect class="px c8" x="12" y="20" width="1" height="1"/>
  <rect class="px c8" x="13" y="20" width="1" height="1"/>
  <rect class="px c8" x="14" y="20" width="1" height="1"/>
  <rect class="px c7" x="15" y="20" width="1" height="1"/>
  <rect class="px c7" x="6" y="21" width="1" height="1"/>
  <rect class="px c8" x="7" y="21" width="1" height="1"/>
  <rect class="px c8" x="8" y="21" width="1" height="1"/>
  <rect class="px c8" x="9" y="21" width="1" height="1"/>
  <rect class="px c7" x="10" y="21" width="1" height="1"/>
  <rect class="px c7" x="11" y="21" width="1" height="1"/>
  <rect class="px c7" x="12" y="21" width="1" height="1"/>
  <rect class="px c7" x="13" y="21" width="1" height="1"/>
  <rect class="px c7" x="14" y="21" width="1" height="1"/>
  <rect class="px c7" x="6" y="22" width="1" height="1"/>
  <rect class="px c8" x="7" y="22" width="1" height="1"/>
  <rect class="px c8" x="8" y="22" width="1" height="1"/>
  <rect class="px c8" x="9" y="22" width="1" height="1"/>
  <rect class="px c7" x="10" y="22" width="1" height="1"/>
  <rect class="px c7" x="6" y="23" width="1" height="1"/>
  <rect class="px c8" x="7" y="23" width="1" height="1"/>
  <rect class="px c8" x="8" y="23" width="1" height="1"/>
  <rect class="px c8" x="9" y="23" width="1" height="1"/>
  <rect class="px c7" x="10" y="23" width="1" height="1"/>
</svg>
